<?xml version="1.0" encoding="UTF-8"?>
<svg xmlns="http://www.w3.org/2000/svg" viewBox="0 0 320 303.76">
  <defs>
    <style>
      .cls-1 {
        fill: #fff;
      }

      .cls-1, .cls-2, .cls-3, .cls-4, .cls-5, .cls-6, .cls-7, .cls-8, .cls-9, .cls-10, .cls-11, .cls-12, .cls-13, .cls-14, .cls-15, .cls-16, .cls-17, .cls-18, .cls-19, .cls-20, .cls-21, .cls-22, .cls-23 {
        stroke-miterlimit: 10;
      }

      .cls-1, .cls-2, .cls-3, .cls-5, .cls-6, .cls-9, .cls-10, .cls-11, .cls-12, .cls-15, .cls-16, .cls-17, .cls-19, .cls-20, .cls-21, .cls-22, .cls-23 {
        stroke: #000;
      }

      .cls-2 {
        fill: #b8b8b8;
      }

      .cls-3, .cls-24 {
        fill: #000;
      }

      .cls-4 {
        stroke: #787878;
      }

      .cls-4, .cls-7, .cls-15, .cls-18 {
        fill: none;
      }

      .cls-5 {
        fill: #b78862;
      }

      .cls-6 {
        fill: #ffd449;
      }

      .cls-7, .cls-14 {
        stroke: #0d1011;
      }

      .cls-25, .cls-26, .cls-27, .cls-24, .cls-28, .cls-29, .cls-30 {
        stroke-width: 0px;
      }

      .cls-25, .cls-12 {
        fill: #125f31;
      }

      .cls-8, .cls-11 {
        fill: #ffe5cf;
      }

      .cls-8, .cls-13, .cls-18 {
        stroke: #263238;
      }

      .cls-26, .cls-19 {
        fill: #2c5e36;
      }

      .cls-27, .cls-28, .cls-23 {
        fill: #125f31;
      }

      .cls-9 {
        fill: #331e0b;
      }

      .cls-28 {
        opacity: .3;
      }

      .cls-10, .cls-13 {
        fill: #fd8721;
      }

      .cls-14 {
        fill: #0d1011;
      }

      .cls-16 {
        fill: #f9d1aa;
      }

      .cls-17 {
        fill: #ead39b;
      }

      .cls-29 {
        fill: #fff9e8;
      }

      .cls-20 {
        fill: #949494;
      }

      .cls-21 {
        fill: #dedede;
      }

      .cls-30 {
        fill: #92e3a9;
      }

      .cls-22 {
        fill: #f8d663;
      }
    </style>
  </defs>
  <g id="Background_Simple" data-name="Background Simple">
    <path class="cls-29" d="M4.23,153.32c-11.3,39.58,1.21,76.59,23.89,100.72,25.15,26.75,59.11,37.2,97.83,27.31,15.34-3.92,30.66-9.29,46.03-11.57,26.44-3.91,54.02-1.74,80.43-9.36,33.41-9.64,64.47-44.36,65.07-82.31.21-13.16-2.65-25.53-6.49-37.17-9.44-28.61-24.82-53.49-42.58-75.63-20.01-24.96-43.92-47.15-74.2-56.32C127.42-11.23,53.23,54.49,16.31,123.81c-5.02,9.43-9.2,19.4-12.08,29.51Z"/>
  </g>
  <g id="Plants">
    <path class="cls-30" d="M292.53,235.41c.02.06,3.35-2.06,3.55-2.22,2.26-1.83,5.55-6.69,4.38-9.72-.84-2.19-3.41-2.9-5.41-1.89-2.05,1.04-3.13,3.65-3.51,5.79-.45,2.51,1,8.03,1,8.04Z"/>
    <path class="cls-30" d="M251.21,195.02c1.01,2.34,5.27,6.15,5.27,6.15.04.04,1.66-3.57,1.73-3.81.88-2.77.94-8.64-1.71-10.52-1.91-1.36-4.44-.54-5.55,1.41-1.14,2-.6,4.77.26,6.77Z"/>
    <path class="cls-30" d="M241.35,208.44c1.53,1.91,6.26,4.32,6.64,4.51-1.36,2.63-2.55,5.45-3.59,8.36-.6,1.66-1.15,3.36-1.68,5.07.13-.82.23-1.54.24-1.65.11-2.9-1.37-8.58-4.43-9.7-2.2-.81-4.43.65-4.98,2.83-.57,2.23.69,4.76,2.04,6.46,1.37,1.72,5.37,3.85,6.43,4.4-.2.66-.4,1.31-.59,1.97-.93,3.15-1.85,6.31-2.84,9.37-.35,1.08-.73,2.13-1.11,3.18.11-.72.2-1.33.2-1.43.11-2.9-1.37-8.58-4.43-9.7-2.2-.81-4.43.65-4.98,2.83-.57,2.23.69,4.76,2.04,6.46,1.31,1.64,4.98,3.64,6.24,4.3-.42,1.07-.84,2.14-1.3,3.15-.33.69-.59,1.37-.96,2.04-.35.67-.7,1.34-1.04,1.99-.71,1.24-1.43,2.53-2.15,3.73-.49.84-.98,1.62-1.47,2.42.36-1.07,1.02-3.18,1.06-3.36.55-2.85-.06-8.69-2.91-10.26-2.05-1.13-4.48-.03-5.35,2.04-.9,2.11-.04,4.81,1.04,6.69,1.19,2.07,5.32,5.06,5.84,5.43-.81,1.31-1.61,2.58-2.39,3.76-2.67,4.1-5.05,7.41-6.75,9.71l1.61,1.51c.05-.07.1-.13.15-.21,1.67-2.36,4.01-5.77,6.62-9.98.83-1.33,1.69-2.76,2.56-4.25.38.15,2.55.99,4.68,1.51-.02,2.45,1.66,6.91,1.88,7.49-1.4.65-2.77,1.26-4.07,1.82-4.49,1.95-8.31,3.4-11,4.38l1.77,1.65c2.61-1.03,6.05-2.45,10.01-4.27,1.42-.65,2.93-1.37,4.48-2.13.36.51,3.32,4.68,5.39,5.89,1.87,1.1,4.56,1.97,6.68,1.09,2.08-.86,3.2-3.27,2.09-5.34-1.54-2.86-7.38-3.52-10.23-3-.17.03-1.96.57-3.08.93.63-.31,1.24-.61,1.89-.94,1.28-.64,2.53-1.32,3.88-2.05.64-.37,1.29-.75,1.94-1.13.66-.36,1.3-.83,1.96-1.25,1.51-1,2.99-2.09,4.46-3.21.57,1.12,2.63,5.05,4.33,6.43,1.68,1.37,4.21,2.64,6.44,2.09,2.18-.54,3.66-2.75,2.87-4.96-1.09-3.06-6.76-4.6-9.66-4.51-.18,0-2.26.3-3.4.49.88-.68,1.76-1.36,2.62-2.08,2.5-2.08,4.96-4.27,7.43-6.44.76-.67,1.52-1.32,2.27-1.98.2.4,2.55,5.13,4.45,6.67,1.68,1.37,4.21,2.64,6.44,2.09,2.18-.54,3.66-2.75,2.87-4.96-1.09-3.06-6.76-4.6-9.66-4.51-.22,0-3.21.44-3.96.59,1.67-1.45,3.35-2.87,5.06-4.21,2.36-1.85,4.78-3.53,7.24-4.99.09.19,2.53,5.13,4.47,6.71,1.68,1.37,4.21,2.64,6.44,2.09,2.18-.54,3.66-2.75,2.87-4.96-1.09-3.07-6.76-4.6-9.66-4.51-.19,0-2.47.33-3.55.52-.03-.1-.03-.08-.06-.18,2.66-1.53,5.42-2.68,8.07-3.63,1.53-.55,3.02-.99,4.49-1.39.36.97,2.05,5.37,3.64,6.99,1.52,1.55,3.9,3.09,6.17,2.79,2.23-.29,3.94-2.33,3.4-4.62-.75-3.17-6.21-5.31-9.11-5.54-.16-.01-1.77.04-2.95.09.66-.17,1.34-.36,1.98-.51,2.39-.57,4.62-.94,6.6-1.25,1.12-.17,2.15-.3,3.1-.41.85.77,4.31,3.81,6.42,4.5,2.06.67,4.88.95,6.76-.37,1.84-1.29,2.42-3.89.89-5.66-2.12-2.46-7.96-1.85-10.64-.72-.23.1-3.67,2.04-3.63,2.08,0,0,.04.04.05.05-.92.09-1.91.2-2.99.33-1.99.27-4.23.59-6.64,1.11-2.42.51-5.03,1.13-7.72,2.04-2.7.9-5.49,1.99-8.22,3.48-.03.02-.06.04-.09.06.66-.68,2.45-2.66,2.57-2.83,1.7-2.36,3.59-7.91,1.66-10.53-1.39-1.89-4.05-1.9-5.72-.39-1.7,1.54-2.05,4.35-1.86,6.51.22,2.44,2.84,7.05,3.05,7.42-2.59,1.44-5.13,3.14-7.6,4.99-1.42,1.06-2.81,2.17-4.19,3.3.55-.61,1.05-1.16,1.11-1.24,1.7-2.36,3.59-7.91,1.66-10.53-1.39-1.89-4.05-1.9-5.72-.39-1.7,1.54-2.05,4.35-1.86,6.51.2,2.19,2.35,6.17,2.94,7.22-.53.44-1.06.87-1.58,1.31-2.52,2.12-5.02,4.24-7.54,6.25-.89.71-1.79,1.37-2.68,2.04.49-.54.9-1,.96-1.08,1.7-2.36,3.59-7.91,1.65-10.53-1.39-1.89-4.05-1.9-5.72-.39-1.7,1.54-2.05,4.35-1.86,6.51.19,2.09,2.14,5.78,2.83,7.03-.94.66-1.88,1.32-2.82,1.91-.65.39-1.25.81-1.93,1.17-.66.37-1.32.73-1.97,1.09-1.28.65-2.59,1.32-3.85,1.92-.87.42-1.71.81-2.56,1.2.89-.69,2.61-2.09,2.74-2.22,1.35-1.38,3-4.14,3.51-6.68.2-.2.38-.42.54-.66,1.26-1.87.86-4.5-1.21-5.6-2.87-1.54-8.1,1.13-10.19,3.15-.12.12-1.32,1.56-2.06,2.48.35-.61.7-1.19,1.05-1.82.71-1.24,1.38-2.5,2.11-3.85.33-.66.66-1.34.99-2.02.35-.67.63-1.41.95-2.12.71-1.67,1.34-3.39,1.95-5.14,1.09.62,4.98,2.76,7.15,2.97,2.16.21,4.97-.12,6.53-1.81,1.53-1.65,1.53-4.31-.34-5.72-2.6-1.95-8.17-.11-10.55,1.57-.15.1-1.72,1.5-2.56,2.28.35-1.06.71-2.11,1.04-3.18.93-3.11,1.78-6.29,2.64-9.46.26-.97.54-1.94.81-2.9.38.22,4.96,2.87,7.39,3.11,2.16.21,4.97-.12,6.53-1.81,1.52-1.65,1.53-4.31-.34-5.72-2.6-1.95-8.17-.11-10.55,1.57-.18.13-2.43,2.14-2.98,2.68.6-2.13,1.21-4.24,1.9-6.3.95-2.84,2.04-5.58,3.29-8.16.18.1,4.94,2.89,7.43,3.13,2.16.21,4.97-.12,6.53-1.81,1.53-1.65,1.53-4.31-.34-5.72-2.6-1.95-8.17-.11-10.55,1.57-.16.11-1.87,1.64-2.67,2.39-.08-.06-.07-.05-.15-.11,1.37-2.74,3.05-5.23,4.73-7.48.97-1.3,1.97-2.5,2.97-3.63.83.61,4.67,3.35,6.89,3.82,2.12.45,4.95.43,6.69-1.08,1.7-1.48,2-4.12.29-5.72-2.37-2.23-8.11-1.01-10.65.4-.14.08-1.46,1.01-2.41,1.7.46-.51.92-1.04,1.37-1.51,1.68-1.79,3.34-3.33,4.81-4.68.85-.76,1.62-1.43,2.36-2.05,1.13.17,5.69.8,7.84.21,2.09-.58,4.59-1.9,5.44-4.04.83-2.09-.13-4.58-2.38-5.21-3.13-.88-7.66,2.84-9.27,5.26-.14.21-1.94,3.73-1.88,3.74,0,0,.05,0,.07.01-.72.58-1.49,1.22-2.31,1.93-1.51,1.32-3.2,2.83-4.93,4.59-1.73,1.76-3.57,3.72-5.31,5.96-1.75,2.24-3.48,4.69-4.94,7.44-.02.03-.03.07-.05.1.18-.94.58-3.57.59-3.78.11-2.9-1.37-8.58-4.43-9.7-2.2-.81-4.43.65-4.98,2.83-.57,2.23.69,4.76,2.04,6.46Z"/>
    <path class="cls-28" d="M251.21,195.02c1.01,2.34,5.27,6.15,5.27,6.15.04.04,1.66-3.57,1.73-3.81.88-2.77.94-8.64-1.71-10.52-1.91-1.36-4.44-.54-5.55,1.41-1.14,2-.6,4.77.26,6.77Z"/>
    <path class="cls-26" d="M292.53,235.41c.02.06,3.35-2.06,3.55-2.22,2.26-1.83,5.55-6.69,4.38-9.72-.84-2.19-3.41-2.9-5.41-1.89-2.05,1.04-3.13,3.65-3.51,5.79-.45,2.51,1,8.03,1,8.04Z"/>
    <path class="cls-25" d="M241.35,208.44c1.53,1.91,6.26,4.32,6.64,4.51-1.36,2.63-2.55,5.45-3.59,8.36-.6,1.66-1.15,3.36-1.68,5.07.13-.82.23-1.54.24-1.65.11-2.9-1.37-8.58-4.43-9.7-2.2-.81-4.43.65-4.98,2.83-.57,2.23.69,4.76,2.04,6.46,1.37,1.72,5.37,3.85,6.43,4.4-.2.66-.4,1.31-.59,1.97-.93,3.15-1.85,6.31-2.84,9.37-.35,1.08-.73,2.13-1.11,3.18.11-.72.2-1.33.2-1.43.11-2.9-1.37-8.58-4.43-9.7-2.2-.81-4.43.65-4.98,2.83-.57,2.23.69,4.76,2.04,6.46,1.31,1.64,4.98,3.64,6.24,4.3-.42,1.07-.84,2.14-1.3,3.15-.33.69-.59,1.37-.96,2.04-.35.67-.7,1.34-1.04,1.99-.71,1.24-1.43,2.53-2.15,3.73-.49.84-.98,1.62-1.47,2.42.36-1.07,1.02-3.18,1.06-3.36.55-2.85-.06-8.69-2.91-10.26-2.05-1.13-4.48-.03-5.35,2.04-.9,2.11-.04,4.81,1.04,6.69,1.19,2.07,5.32,5.06,5.84,5.43-.81,1.31-1.61,2.58-2.39,3.76-2.67,4.1-5.05,7.41-6.75,9.71l1.61,1.51c.05-.07.1-.13.15-.21,1.67-2.36,4.01-5.77,6.62-9.98.83-1.33,1.69-2.76,2.56-4.25.38.15,2.55.99,4.68,1.51-.02,2.45,1.66,6.91,1.88,7.49-1.4.65-2.77,1.26-4.07,1.82-4.49,1.95-8.31,3.4-11,4.38l1.77,1.65c2.61-1.03,6.05-2.45,10.01-4.27,1.42-.65,2.93-1.37,4.48-2.13.36.51,3.32,4.68,5.39,5.89,1.87,1.1,4.56,1.97,6.68,1.09,2.08-.86,3.2-3.27,2.09-5.34-1.54-2.86-7.38-3.52-10.23-3-.17.03-1.96.57-3.08.93.63-.31,1.24-.61,1.89-.94,1.28-.64,2.53-1.32,3.88-2.05.64-.37,1.29-.75,1.94-1.13.66-.36,1.3-.83,1.96-1.25,1.51-1,2.99-2.09,4.46-3.21.57,1.12,2.63,5.05,4.33,6.43,1.68,1.37,4.21,2.64,6.44,2.09,2.18-.54,3.66-2.75,2.87-4.96-1.09-3.06-6.76-4.6-9.66-4.51-.18,0-2.26.3-3.4.49.88-.68,1.76-1.36,2.62-2.08,2.5-2.08,4.96-4.27,7.43-6.44.76-.67,1.52-1.32,2.27-1.98.2.4,2.55,5.13,4.45,6.67,1.68,1.37,4.21,2.64,6.44,2.09,2.18-.54,3.66-2.75,2.87-4.96-1.09-3.06-6.76-4.6-9.66-4.51-.22,0-3.21.44-3.96.59,1.67-1.45,3.35-2.87,5.06-4.21,2.36-1.85,4.78-3.53,7.24-4.99.09.19,2.53,5.13,4.47,6.71,1.68,1.37,4.21,2.64,6.44,2.09,2.18-.54,3.66-2.75,2.87-4.96-1.09-3.07-6.76-4.6-9.66-4.51-.19,0-2.47.33-3.55.52-.03-.1-.03-.08-.06-.18,2.66-1.53,5.42-2.68,8.07-3.63,1.53-.55,3.02-.99,4.49-1.39.36.97,2.05,5.37,3.64,6.99,1.52,1.55,3.9,3.09,6.17,2.79,2.23-.29,3.94-2.33,3.4-4.62-.75-3.17-6.21-5.31-9.11-5.54-.16-.01-1.77.04-2.95.09.66-.17,1.34-.36,1.98-.51,2.39-.57,4.62-.94,6.6-1.25,1.12-.17,2.15-.3,3.1-.41.85.77,4.31,3.81,6.42,4.5,2.06.67,4.88.95,6.76-.37,1.84-1.29,2.42-3.89.89-5.66-2.12-2.46-7.96-1.85-10.64-.72-.23.1-3.67,2.04-3.63,2.08,0,0,.04.04.05.05-.92.09-1.91.2-2.99.33-1.99.27-4.23.59-6.64,1.11-2.42.51-5.03,1.13-7.72,2.04-2.7.9-5.49,1.99-8.22,3.48-.03.02-.06.04-.09.06.66-.68,2.45-2.66,2.57-2.83,1.7-2.36,3.59-7.91,1.66-10.53-1.39-1.89-4.05-1.9-5.72-.39-1.7,1.54-2.05,4.35-1.86,6.51.22,2.44,2.84,7.05,3.05,7.42-2.59,1.44-5.13,3.14-7.6,4.99-1.42,1.06-2.81,2.17-4.19,3.3.55-.61,1.05-1.16,1.11-1.24,1.7-2.36,3.59-7.91,1.66-10.53-1.39-1.89-4.05-1.9-5.72-.39-1.7,1.54-2.05,4.35-1.86,6.51.2,2.19,2.35,6.17,2.94,7.22-.53.44-1.06.87-1.58,1.31-2.52,2.12-5.02,4.24-7.54,6.25-.89.71-1.79,1.37-2.68,2.04.49-.54.9-1,.96-1.08,1.7-2.36,3.59-7.91,1.65-10.53-1.39-1.89-4.05-1.9-5.72-.39-1.7,1.54-2.05,4.35-1.86,6.51.19,2.09,2.14,5.78,2.83,7.03-.94.66-1.88,1.32-2.82,1.91-.65.39-1.25.81-1.93,1.17-.66.37-1.32.73-1.97,1.09-1.28.65-2.59,1.32-3.85,1.92-.87.42-1.71.81-2.56,1.2.89-.69,2.61-2.09,2.74-2.22,1.35-1.38,3-4.14,3.51-6.68.2-.2.38-.42.54-.66,1.26-1.87.86-4.5-1.21-5.6-2.87-1.54-8.1,1.13-10.19,3.15-.12.12-1.32,1.56-2.06,2.48.35-.61.7-1.19,1.05-1.82.71-1.24,1.38-2.5,2.11-3.85.33-.66.66-1.34.99-2.02.35-.67.63-1.41.95-2.12.71-1.67,1.34-3.39,1.95-5.14,1.09.62,4.98,2.76,7.15,2.97,2.16.21,4.97-.12,6.53-1.81,1.53-1.65,1.53-4.31-.34-5.72-2.6-1.95-8.17-.11-10.55,1.57-.15.1-1.72,1.5-2.56,2.28.35-1.06.71-2.11,1.04-3.18.93-3.11,1.78-6.29,2.64-9.46.26-.97.54-1.94.81-2.9.38.22,4.96,2.87,7.39,3.11,2.16.21,4.97-.12,6.53-1.81,1.52-1.65,1.53-4.31-.34-5.72-2.6-1.95-8.17-.11-10.55,1.57-.18.13-2.43,2.14-2.98,2.68.6-2.13,1.21-4.24,1.9-6.3.95-2.84,2.04-5.58,3.29-8.16.18.1,4.94,2.89,7.43,3.13,2.16.21,4.97-.12,6.53-1.81,1.53-1.65,1.53-4.31-.34-5.72-2.6-1.95-8.17-.11-10.55,1.57-.16.11-1.87,1.64-2.67,2.39-.08-.06-.07-.05-.15-.11,1.37-2.74,3.05-5.23,4.73-7.48.97-1.3,1.97-2.5,2.97-3.63.83.61,4.67,3.35,6.89,3.82,2.12.45,4.95.43,6.69-1.08,1.7-1.48,2-4.12.29-5.72-2.37-2.23-8.11-1.01-10.65.4-.14.08-1.46,1.01-2.41,1.7.46-.51.92-1.04,1.37-1.51,1.68-1.79,3.34-3.33,4.81-4.68.85-.76,1.62-1.43,2.36-2.05,1.13.17,5.69.8,7.84.21,2.09-.58,4.59-1.9,5.44-4.04.83-2.09-.13-4.58-2.38-5.21-3.13-.88-7.66,2.84-9.27,5.26-.14.21-1.94,3.73-1.88,3.74,0,0,.05,0,.07.01-.72.58-1.49,1.22-2.31,1.93-1.51,1.32-3.2,2.83-4.93,4.59-1.73,1.76-3.57,3.72-5.31,5.96-1.75,2.24-3.48,4.69-4.94,7.44-.02.03-.03.07-.05.1.18-.94.58-3.57.59-3.78.11-2.9-1.37-8.58-4.43-9.7-2.2-.81-4.43.65-4.98,2.83-.57,2.23.69,4.76,2.04,6.46Z"/>
    <path class="cls-30" d="M33.53,235.41c-.02.06-3.35-2.06-3.55-2.22-2.26-1.83-5.55-6.69-4.38-9.72.84-2.19,3.41-2.9,5.41-1.89,2.05,1.04,3.13,3.65,3.51,5.79.45,2.51-1,8.03-1,8.04Z"/>
    <path class="cls-30" d="M74.85,195.02c-1.01,2.34-5.27,6.15-5.27,6.15-.04.04-1.66-3.57-1.73-3.81-.88-2.77-.94-8.64,1.71-10.52,1.91-1.36,4.44-.54,5.55,1.41,1.14,2,.6,4.77-.26,6.77Z"/>
    <path class="cls-30" d="M84.71,208.44c-1.53,1.91-6.26,4.32-6.64,4.51,1.36,2.63,2.55,5.45,3.59,8.36.6,1.66,1.15,3.36,1.68,5.07-.13-.82-.23-1.54-.24-1.65-.11-2.9,1.37-8.58,4.43-9.7,2.2-.81,4.43.65,4.98,2.83.57,2.23-.69,4.76-2.04,6.46-1.37,1.72-5.37,3.85-6.43,4.4.2.66.4,1.31.59,1.97.93,3.15,1.84,6.31,2.84,9.37.35,1.08.73,2.13,1.11,3.18-.11-.72-.2-1.33-.2-1.43-.11-2.9,1.37-8.58,4.43-9.7,2.2-.81,4.43.65,4.98,2.83.57,2.23-.69,4.76-2.04,6.46-1.31,1.64-4.98,3.64-6.24,4.3.42,1.07.84,2.14,1.3,3.15.33.69.6,1.37.96,2.04.35.67.7,1.34,1.04,1.99.71,1.24,1.43,2.53,2.15,3.73.49.84.98,1.62,1.47,2.42-.36-1.07-1.02-3.18-1.06-3.36-.55-2.85.06-8.69,2.91-10.26,2.05-1.13,4.48-.03,5.35,2.04.9,2.11.04,4.81-1.04,6.69-1.19,2.07-5.32,5.06-5.84,5.43.81,1.31,1.61,2.58,2.39,3.76,2.67,4.1,5.05,7.41,6.75,9.71l-1.61,1.51c-.05-.07-.1-.13-.15-.21-1.67-2.36-4.01-5.77-6.62-9.98-.83-1.33-1.69-2.76-2.56-4.25-.38.15-2.55.99-4.68,1.51.02,2.45-1.66,6.91-1.88,7.49,1.4.65,2.77,1.26,4.07,1.82,4.49,1.95,8.31,3.4,11,4.38l-1.77,1.65c-2.61-1.03-6.05-2.45-10.01-4.27-1.42-.65-2.93-1.37-4.48-2.13-.36.51-3.32,4.68-5.39,5.89-1.87,1.1-4.56,1.97-6.68,1.09-2.08-.86-3.2-3.27-2.09-5.34,1.54-2.86,7.38-3.52,10.23-3,.17.03,1.96.57,3.08.93-.63-.31-1.24-.61-1.89-.94-1.28-.64-2.53-1.32-3.88-2.05-.64-.37-1.29-.75-1.94-1.13-.66-.36-1.3-.83-1.96-1.25-1.51-1-2.99-2.09-4.46-3.21-.57,1.12-2.63,5.05-4.33,6.43-1.68,1.37-4.21,2.64-6.44,2.09-2.18-.54-3.66-2.75-2.87-4.96,1.09-3.06,6.76-4.6,9.66-4.51.18,0,2.26.3,3.4.49-.88-.68-1.76-1.36-2.62-2.08-2.5-2.08-4.96-4.27-7.43-6.44-.76-.67-1.52-1.32-2.27-1.98-.2.4-2.55,5.13-4.45,6.67-1.68,1.37-4.21,2.64-6.44,2.09-2.18-.54-3.66-2.75-2.87-4.96,1.09-3.06,6.76-4.6,9.66-4.51.22,0,3.21.44,3.96.59-1.67-1.45-3.35-2.87-5.06-4.21-2.36-1.85-4.78-3.53-7.24-4.99-.09.19-2.53,5.13-4.47,6.71-1.68,1.37-4.21,2.64-6.44,2.09-2.18-.54-3.66-2.75-2.87-4.96,1.09-3.07,6.76-4.6,9.66-4.51.19,0,2.47.33,3.55.52.03-.1.03-.08.06-.18-2.66-1.53-5.42-2.68-8.07-3.63-1.53-.55-3.02-.99-4.49-1.39-.36.97-2.05,5.37-3.64,6.99-1.52,1.55-3.9,3.09-6.17,2.79-2.23-.29-3.94-2.33-3.4-4.62.75-3.17,6.21-5.31,9.11-5.54.16-.01,1.77.04,2.95.09-.66-.17-1.34-.36-1.98-.51-2.39-.57-4.62-.94-6.6-1.25-1.12-.17-2.15-.3-3.1-.41-.85.77-4.31,3.81-6.42,4.5-2.06.67-4.88.95-6.76-.37-1.84-1.29-2.42-3.89-.89-5.66,2.12-2.46,7.96-1.85,10.64-.72.23.1,3.67,2.04,3.63,2.08,0,0-.04.04-.05.05.92.09,1.91.2,2.99.33,1.99.27,4.23.59,6.64,1.11,2.42.51,5.03,1.13,7.72,2.04,2.7.9,5.49,1.99,8.22,3.48.03.02.06.04.09.06-.66-.68-2.45-2.66-2.57-2.83-1.7-2.36-3.59-7.91-1.66-10.53,1.39-1.89,4.05-1.9,5.72-.39,1.7,1.54,2.05,4.35,1.86,6.51-.22,2.44-2.84,7.05-3.05,7.42,2.59,1.44,5.13,3.14,7.6,4.99,1.42,1.06,2.81,2.17,4.19,3.3-.55-.61-1.05-1.16-1.11-1.24-1.7-2.36-3.59-7.91-1.66-10.53,1.39-1.89,4.05-1.9,5.72-.39,1.7,1.54,2.05,4.35,1.86,6.51-.2,2.19-2.35,6.17-2.94,7.22.53.44,1.06.87,1.58,1.31,2.52,2.12,5.02,4.24,7.54,6.25.89.71,1.79,1.37,2.68,2.04-.49-.54-.9-1-.96-1.08-1.7-2.36-3.59-7.91-1.65-10.53,1.39-1.89,4.05-1.9,5.72-.39,1.7,1.54,2.05,4.35,1.86,6.51-.19,2.09-2.14,5.78-2.83,7.03.94.66,1.88,1.32,2.82,1.91.65.39,1.25.81,1.93,1.17.66.37,1.32.73,1.97,1.09,1.28.65,2.59,1.32,3.85,1.92.87.42,1.71.81,2.56,1.2-.89-.69-2.61-2.09-2.74-2.22-1.35-1.38-3-4.14-3.51-6.68-.2-.2-.38-.42-.54-.66-1.26-1.87-.86-4.5,1.21-5.6,2.87-1.54,8.1,1.13,10.19,3.15.12.12,1.32,1.56,2.06,2.48-.35-.61-.7-1.19-1.05-1.82-.71-1.24-1.38-2.5-2.11-3.85-.33-.66-.66-1.34-.99-2.02-.35-.67-.63-1.41-.95-2.12-.71-1.67-1.34-3.39-1.95-5.14-1.09.62-4.98,2.76-7.15,2.97-2.16.21-4.97-.12-6.53-1.81-1.53-1.65-1.53-4.31.34-5.72,2.6-1.95,8.17-.11,10.55,1.57.15.1,1.72,1.5,2.56,2.28-.35-1.06-.71-2.11-1.04-3.18-.93-3.11-1.78-6.29-2.64-9.46-.26-.97-.54-1.94-.81-2.9-.38.22-4.96,2.87-7.39,3.11-2.16.21-4.97-.12-6.53-1.81-1.52-1.65-1.53-4.31.34-5.72,2.6-1.95,8.17-.11,10.55,1.57.18.13,2.43,2.14,2.98,2.68-.6-2.13-1.21-4.24-1.9-6.3-.95-2.84-2.04-5.58-3.29-8.16-.18.1-4.94,2.89-7.43,3.13-2.16.21-4.97-.12-6.53-1.81-1.52-1.65-1.53-4.31.34-5.72,2.6-1.95,8.17-.11,10.55,1.57.16.11,1.87,1.64,2.67,2.39.08-.06.07-.05.15-.11-1.37-2.74-3.05-5.23-4.73-7.48-.97-1.3-1.97-2.5-2.97-3.63-.83.61-4.67,3.35-6.89,3.82-2.12.45-4.95.43-6.69-1.08-1.7-1.48-2-4.12-.29-5.72,2.37-2.23,8.11-1.01,10.65.4.14.08,1.46,1.01,2.41,1.7-.46-.51-.92-1.04-1.37-1.51-1.68-1.79-3.34-3.33-4.81-4.68-.85-.76-1.62-1.43-2.36-2.05-1.13.17-5.69.8-7.84.21-2.09-.58-4.59-1.9-5.44-4.04-.83-2.09.13-4.58,2.38-5.21,3.13-.88,7.66,2.84,9.27,5.26.14.21,1.94,3.73,1.88,3.74,0,0-.06,0-.07.01.72.58,1.49,1.22,2.31,1.93,1.51,1.32,3.2,2.83,4.93,4.59,1.73,1.76,3.57,3.72,5.31,5.96,1.75,2.24,3.48,4.69,4.94,7.44.02.03.03.07.05.1-.18-.94-.58-3.57-.59-3.78-.11-2.9,1.37-8.58,4.43-9.7,2.2-.81,4.43.65,4.98,2.83.57,2.23-.69,4.76-2.04,6.46Z"/>
    <path class="cls-27" d="M74.85,195.02c-1.01,2.34-5.27,6.15-5.27,6.15-.04.04-1.66-3.57-1.73-3.81-.88-2.77-.94-8.64,1.71-10.52,1.91-1.36,4.44-.54,5.55,1.41,1.14,2,.6,4.77-.26,6.77Z"/>
    <path class="cls-26" d="M33.53,235.41c-.02.06-3.35-2.06-3.55-2.22-2.26-1.83-5.55-6.69-4.38-9.72.84-2.19,3.41-2.9,5.41-1.89,2.05,1.04,3.13,3.65,3.51,5.79.45,2.51-1,8.03-1,8.04Z"/>
    <path class="cls-25" d="M84.71,208.44c-1.53,1.91-6.26,4.32-6.64,4.51,1.36,2.63,2.55,5.45,3.59,8.36.6,1.66,1.15,3.36,1.68,5.07-.13-.82-.23-1.54-.24-1.65-.11-2.9,1.37-8.58,4.43-9.7,2.2-.81,4.43.65,4.98,2.83.57,2.23-.69,4.76-2.04,6.46-1.37,1.72-5.37,3.85-6.43,4.4.2.66.4,1.31.59,1.97.93,3.15,1.84,6.31,2.84,9.37.35,1.08.73,2.13,1.11,3.18-.11-.72-.2-1.33-.2-1.43-.11-2.9,1.37-8.58,4.43-9.7,2.2-.81,4.43.65,4.98,2.83.57,2.23-.69,4.76-2.04,6.46-1.31,1.64-4.98,3.64-6.24,4.3.42,1.07.84,2.14,1.3,3.15.33.69.6,1.37.96,2.04.35.67.7,1.34,1.04,1.99.71,1.24,1.43,2.53,2.15,3.73.49.84.98,1.62,1.47,2.42-.36-1.07-1.02-3.18-1.06-3.36-.55-2.85.06-8.69,2.91-10.26,2.05-1.13,4.48-.03,5.35,2.04.9,2.11.04,4.81-1.04,6.69-1.19,2.07-5.32,5.06-5.84,5.43.81,1.31,1.61,2.58,2.39,3.76,2.67,4.1,5.05,7.41,6.75,9.71l-1.61,1.51c-.05-.07-.1-.13-.15-.21-1.67-2.36-4.01-5.77-6.62-9.98-.83-1.33-1.69-2.76-2.56-4.25-.38.15-2.55.99-4.68,1.51.02,2.45-1.66,6.91-1.88,7.49,1.4.65,2.77,1.26,4.07,1.82,4.49,1.95,8.31,3.4,11,4.38l-1.77,1.65c-2.61-1.03-6.05-2.45-10.01-4.27-1.42-.65-2.93-1.37-4.48-2.13-.36.51-3.32,4.68-5.39,5.89-1.87,1.1-4.56,1.97-6.68,1.09-2.08-.86-3.2-3.27-2.09-5.34,1.54-2.86,7.38-3.52,10.23-3,.17.03,1.96.57,3.08.93-.63-.31-1.24-.61-1.89-.94-1.28-.64-2.53-1.32-3.88-2.05-.64-.37-1.29-.75-1.94-1.13-.66-.36-1.3-.83-1.96-1.25-1.51-1-2.99-2.09-4.46-3.21-.57,1.12-2.63,5.05-4.33,6.43-1.68,1.37-4.21,2.64-6.44,2.09-2.18-.54-3.66-2.75-2.87-4.96,1.09-3.06,6.76-4.6,9.66-4.51.18,0,2.26.3,3.4.49-.88-.68-1.76-1.36-2.62-2.08-2.5-2.08-4.96-4.27-7.43-6.44-.76-.67-1.52-1.32-2.27-1.98-.2.4-2.55,5.13-4.45,6.67-1.68,1.37-4.21,2.64-6.44,2.09-2.18-.54-3.66-2.75-2.87-4.96,1.09-3.06,6.76-4.6,9.66-4.51.22,0,3.21.44,3.96.59-1.67-1.45-3.35-2.87-5.06-4.21-2.36-1.85-4.78-3.53-7.24-4.99-.09.19-2.53,5.13-4.47,6.71-1.68,1.37-4.21,2.64-6.44,2.09-2.18-.54-3.66-2.75-2.87-4.96,1.09-3.07,6.76-4.6,9.66-4.51.19,0,2.47.33,3.55.52.03-.1.03-.08.06-.18-2.66-1.53-5.42-2.68-8.07-3.63-1.53-.55-3.02-.99-4.49-1.39-.36.97-2.05,5.37-3.64,6.99-1.52,1.55-3.9,3.09-6.17,2.79-2.23-.29-3.94-2.33-3.4-4.62.75-3.17,6.21-5.31,9.11-5.54.16-.01,1.77.04,2.95.09-.66-.17-1.34-.36-1.98-.51-2.39-.57-4.62-.94-6.6-1.25-1.12-.17-2.15-.3-3.1-.41-.85.77-4.31,3.81-6.42,4.5-2.06.67-4.88.95-6.76-.37-1.84-1.29-2.42-3.89-.89-5.66,2.12-2.46,7.96-1.85,10.64-.72.23.1,3.67,2.04,3.63,2.08,0,0-.04.04-.05.05.92.09,1.91.2,2.99.33,1.99.27,4.23.59,6.64,1.11,2.42.51,5.03,1.13,7.72,2.04,2.7.9,5.49,1.99,8.22,3.48.03.02.06.04.09.06-.66-.68-2.45-2.66-2.57-2.83-1.7-2.36-3.59-7.91-1.66-10.53,1.39-1.89,4.05-1.9,5.72-.39,1.7,1.54,2.05,4.35,1.86,6.51-.22,2.44-2.84,7.05-3.05,7.42,2.59,1.44,5.13,3.14,7.6,4.99,1.42,1.06,2.81,2.17,4.19,3.3-.55-.61-1.05-1.16-1.11-1.24-1.7-2.36-3.59-7.91-1.66-10.53,1.39-1.89,4.05-1.9,5.72-.39,1.7,1.54,2.05,4.35,1.86,6.51-.2,2.19-2.35,6.17-2.94,7.22.53.44,1.06.87,1.58,1.31,2.52,2.12,5.02,4.24,7.54,6.25.89.71,1.79,1.37,2.68,2.04-.49-.54-.9-1-.96-1.08-1.7-2.36-3.59-7.91-1.65-10.53,1.39-1.89,4.05-1.9,5.72-.39,1.7,1.54,2.05,4.35,1.86,6.51-.19,2.09-2.14,5.78-2.83,7.03.94.66,1.88,1.32,2.82,1.91.65.39,1.25.81,1.93,1.17.66.37,1.32.73,1.97,1.09,1.28.65,2.59,1.32,3.85,1.92.87.42,1.71.81,2.56,1.2-.89-.69-2.61-2.09-2.74-2.22-1.35-1.38-3-4.14-3.51-6.68-.2-.2-.38-.42-.54-.66-1.26-1.87-.86-4.5,1.21-5.6,2.87-1.54,8.1,1.13,10.19,3.15.12.12,1.32,1.56,2.06,2.48-.35-.61-.7-1.19-1.05-1.82-.71-1.24-1.38-2.5-2.11-3.85-.33-.66-.66-1.34-.99-2.02-.35-.67-.63-1.41-.95-2.12-.71-1.67-1.34-3.39-1.95-5.14-1.09.62-4.98,2.76-7.15,2.97-2.16.21-4.97-.12-6.53-1.81-1.53-1.65-1.53-4.31.34-5.72,2.6-1.95,8.17-.11,10.55,1.57.15.1,1.72,1.5,2.56,2.28-.35-1.06-.71-2.11-1.04-3.18-.93-3.11-1.78-6.29-2.64-9.46-.26-.97-.54-1.94-.81-2.9-.38.22-4.96,2.87-7.39,3.11-2.16.21-4.97-.12-6.53-1.81-1.52-1.65-1.53-4.31.34-5.72,2.6-1.95,8.17-.11,10.55,1.57.18.13,2.43,2.14,2.98,2.68-.6-2.13-1.21-4.24-1.9-6.3-.95-2.84-2.04-5.58-3.29-8.16-.18.1-4.94,2.89-7.43,3.13-2.16.21-4.97-.12-6.53-1.81-1.52-1.65-1.53-4.31.34-5.72,2.6-1.95,8.17-.11,10.55,1.57.16.11,1.87,1.64,2.67,2.39.08-.06.07-.05.15-.11-1.37-2.74-3.05-5.23-4.73-7.48-.97-1.3-1.97-2.5-2.97-3.63-.83.61-4.67,3.35-6.89,3.82-2.12.45-4.95.43-6.69-1.08-1.7-1.48-2-4.12-.29-5.72,2.37-2.23,8.11-1.01,10.65.4.14.08,1.46,1.01,2.41,1.7-.46-.51-.92-1.04-1.37-1.51-1.68-1.79-3.34-3.33-4.81-4.68-.85-.76-1.62-1.43-2.36-2.05-1.13.17-5.69.8-7.84.21-2.09-.58-4.59-1.9-5.44-4.04-.83-2.09.13-4.58,2.38-5.21,3.13-.88,7.66,2.84,9.27,5.26.14.21,1.94,3.73,1.88,3.74,0,0-.06,0-.07.01.72.58,1.49,1.22,2.31,1.93,1.51,1.32,3.2,2.83,4.93,4.59,1.73,1.76,3.57,3.72,5.31,5.96,1.75,2.24,3.48,4.69,4.94,7.44.02.03.03.07.05.1-.18-.94-.58-3.57-.59-3.78-.11-2.9,1.37-8.58,4.43-9.7,2.2-.81,4.43.65,4.98,2.83.57,2.23-.69,4.76-2.04,6.46Z"/>
  </g>
  <g id="Cube">
    <rect class="cls-2" x="93.72" y="188.89" width="131.45" height="91.31"/>
    <rect class="cls-20" x="124.46" y="188.89" width="100.7" height="91.31"/>
  </g>
  <g id="Floor">
    <line class="cls-15" x1="302.8" y1="280.21" x2="8.7" y2="280.21"/>
  </g>
  <g id="Character_2" data-name="Character 2">
    <path class="cls-16" d="M125.12,41.58s.43,3.62-.43,5.65c-.87,2.03-1.59,3.48-1.59,3.48,0,0,2.9,14.35,3.19,15.08.29.72,1.56,2.83,1.56,2.83,0,0,9.05-4.9,12.3-5.75s6.59,4.8,6.59,6.83-9.28,5.07-11.02,5.07-15.8,5.94-16.53,1.59c-.72-4.35-4.06-30.59-4.2-32.33-.15-1.74-.43-3.19-.43-3.19l10.58.72Z"/>
    <g>
      <g>
        <path class="cls-1" d="M205.8,152.25s1.35,2.87,2.53,5.07,1.01,3.88,1.35,5.91c.34,2.03-.68,9.29.68,10.98,1.35,1.69,3.04,1.52,5.57.68s6.25-6.42,6.75-11.65c.51-5.23,1.01-13.51,0-15.87s-5.23-3.21-7.77-3.38c-2.53-.17-4.9.68-4.9.68l-4.22,7.6Z"/>
        <path class="cls-1" d="M218.91,144.69c.02,1.22.21,3.33.57,6.21.51,4.05,1.69,10.47-.17,17.39-1.69,6.29-6.43,7-7.28,7.08,1.05.3,2.31.04,3.91-.5,2.53-.84,6.25-6.42,6.75-11.65.51-5.23,1.01-13.51,0-15.87-.56-1.3-2.09-2.14-3.78-2.66Z"/>
      </g>
      <path class="cls-16" d="M172.49,139.17s4.56,7.94,6.92,9.63c2.36,1.69,23.18,3.46,24.53,3.79,1.35.34,7.26.84,7.6-2.03.34-2.87-.51-5.91-1.52-5.91s-8.49-4.81-13.21-6.33c-4.73-1.52-7.94-2.53-7.94-2.53l-2.2-2.7-14.18,6.08Z"/>
      <path class="cls-1" d="M140.4,172.77s-1.73-1.07-2.41.29c-.68,1.36-.85,3.23-1.19,3.74-.34.51-1.87,2.38-6.47,3.74-4.59,1.36-5.78,1.84-6.13,4.08-.34,2.21,2.04,3.91,4.76,4.59,2.72.68,12.76-.51,15.15-.51s4.59.51,6.98.51,4.25-1.53,4.25-4.42-1.02-6.3-1.7-7.83c-.68-1.53-.97-3.83-1.93-3.53-.96.3-2.32.3-2.32.3,0,0-6.24.78-8.99-.97Z"/>
      <path class="cls-16" d="M139.73,138.5s-.51,9.12.51,12.66.68,19.76.17,21.61c-.51,1.86,2.7,3.55,5.91,4.05,3.21.51,5.07-2.03,5.4-3.38.34-1.35.17-6.75,2.2-11.48,1.73-4.05.35-15.23-.17-16.21-.39-.75,1.35-6.75,1.35-6.75l-15.37-.51Z"/>
      <path class="cls-20" d="M136.35,120.43l-.84,18.58s3.38,3.55,10.98,3.55,13.51-.68,13.51-.68l1.18,3.21s9.29-1.35,18.58-6.25,10.98-9.46,10.98-9.46l-11.48-21.78s-8.11,7.94-23.13,9.79c-15.03,1.86-19.76,1.35-19.76,1.35v1.69Z"/>
      <polyline class="cls-15" points="150.03 125.66 155.1 125.16 159.99 141.87"/>
      <path class="cls-15" d="M182.26,127.36c1.56-1.26,3.05-2.66,4.42-4.23"/>
      <path class="cls-15" d="M159.49,137.31s9.77-1.45,18.92-7.21"/>
      <path class="cls-15" d="M136.52,133.6s9.12,4.56,19.76,2.87"/>
    </g>
    <g>
      <path class="cls-19" d="M134.49,85.64l-1.18,36.31s14.35,1.69,28.37-2.7c14.02-4.39,19.08-11.99,19.08-11.99,0,0-14.35-22.97-16.55-26.34-2.2-3.38-8.78-15.7-8.78-15.7l-17.56,2.36s-3.04,5.91-3.38,18.07Z"/>
      <path class="cls-15" d="M139.43,89.06s9.46,4.9,15.37,5.23"/>
      <path class="cls-15" d="M157.69,104.06c1.71.91,3.35,1.66,4.66,2.01"/>
      <path class="cls-15" d="M147.33,97.46s3.28,2.39,7.03,4.68"/>
    </g>
    <path class="cls-1" d="M140.13,62.87s-3.21,2.81-3.88,4.95c-.67,2.14.53,2.27,1.47,2.27s10.83.53,15.78-1.2c4.95-1.74,3.34-5.35,1.6-6.42-1.74-1.07-5.35-.8-5.35-.8,0,0-5.61-.27-9.63,1.2Z"/>
    <path class="cls-16" d="M138.51,61.56l1.37,6.73s9.46-2.17,11.29-3.31c1.82-1.14,2.05-1.71,2.05-1.71l-.23-3.08-14.48,1.37Z"/>
    <g>
      <path class="cls-16" d="M137.83,26.57s-2.85,3.53-3.53,6.04c-.68,2.51-.91,4.9-2.05,6.61-1.14,1.71-7.07,4.56-5.24,10.15,1.82,5.59,4.67,10.6,11.51,12.2,6.84,1.6,13.22.11,16.07-1.6l.91-.91s3.53,1.6,6.61.46,4.9-7.07,4.1-9.69-2.17-1.82-5.93-9.01c-3.76-7.18-7.98-12.2-13.45-14.36s-7.3-.68-9.01.11Z"/>
      <path class="cls-9" d="M141.93,18.81s-4.1-3.19-8.78-.91c-4.67,2.28-3.08,8.09-2.17,7.87s2.39-2.74,4.1-2.28,2.28.57,2.28.57c0,0-3.19,1.37-3.19,2.85s1.03,2.28,1.03,2.28c0,0,2.28-1.48,3.42-1.48h2.17s-1.03,3.19,1.37,4.79c2.39,1.6,5.24,2.51,9.23,3.76,3.99,1.25,5.36,3.53,5.24,5.59-.11,2.05-2.28,3.65-2.62,3.76-.34.11.57.8,1.25,1.14.68.34,2.05.11,2.05.11,0,0-1.14.68-1.03,1.71.11,1.03.8,1.6.8,1.6,0,0,1.37-1.14,3.08-1.25,1.71-.11,3.42,0,3.65,3.08s-2.39,6.38-4.56,6.84c-2.17.46-3.76.23-3.76.23,0,0,3.42,1.82,6.27,1.82s5.36-1.82,5.81-3.19l.46-1.37s1.03,0,1.82-.23c.8-.23.8-1.14.8-1.14,0,0-1.6-1.03-1.71-1.94-.11-.91,4.45-3.53,5.47-7.75,1.03-4.22.23-14.36-4.79-20.18-5.02-5.81-11.63-8.32-17.67-8.55-5.26-.2-10.03,2.28-10.03,2.28Z"/>
      <path class="cls-15" d="M137.83,41.61s.11,1.03-1.94,2.05c-2.05,1.03-2.39,2.05-1.48,3.08s2.17.91,2.51.68"/>
      <path class="cls-15" d="M134.07,49.36s4.67,3.88,10.6.68"/>
      <path class="cls-15" d="M142.96,43.55s3.31-.91,4.56,2.28"/>
      <path class="cls-9" d="M143.76,37.85s2.28-1.03,4.22.34c1.94,1.37,2.51,4.1,1.82,4.22-.68.11-1.37-1.82-2.74-2.39-1.37-.57-3.19-1.48-3.31-2.17Z"/>
      <path class="cls-9" d="M139.2,34.66s-.11-2.62-1.82-3.42c-1.71-.8-3.76,1.37-3.08,1.37s.91-1.03,2.28,0c1.37,1.03,1.48,2.85,2.62,2.05Z"/>
    </g>
    <g>
      <path class="cls-19" d="M135.59,38.89c-.49,2.97-2.23,5.15-3.89,4.88s-2.6-2.9-2.11-5.87c.49-2.97,2.23-5.15,3.89-4.88,1.66.27,2.6,2.9,2.11,5.87Z"/>
      <path class="cls-23" d="M133.18,33.97l-26.31-10.63-3.76,18.09,28.59,1.44c1.26.21,2.61-1.61,3.02-4.07s-.28-4.62-1.54-4.83Z"/>
      <path class="cls-12" d="M108.51,21.14L56.36.79l-7.02,36.79,55.41,6.29c3.21.53,6.66-4.12,7.7-10.4,1.04-6.28-.72-11.79-3.94-12.33Z"/>
      <ellipse class="cls-23" cx="52.4" cy="19.07" rx="18.76" ry="9.61" transform="translate(25.02 67.65) rotate(-80.59)"/>
      <path class="cls-3" d="M59.4,20.23c-1.19,7.22-5.05,12.66-8.76,12.55-.17,0-.34-.01-.5-.04-3.86-.64-5.98-7.28-4.73-14.83,1.25-7.55,5.4-13.15,9.27-12.51.37.06.73.18,1.07.36,3.17,1.58,4.79,7.65,3.66,14.48Z"/>
      <path class="cls-1" d="M59.4,20.23c-1.19,7.22-5.05,12.66-8.76,12.55-3.16-1.59-4.78-7.67-3.65-14.47,1.19-7.22,5.03-12.66,8.75-12.55,3.17,1.58,4.79,7.65,3.66,14.48Z"/>
    </g>
    <path class="cls-16" d="M127.83,68.62s-2.81-3.07-4.95-8.29c-2.14-5.21-3.21-11.1-3.21-11.1,0,0,3.07-4.55,3.74-5.62.67-1.07.8-4.01,1.34-5.21s2.67-2.94.27-3.07c-2.41-.13-3.61,1.87-3.61,1.87,0,0,.18-5.52-1.01-7.03-1.19-1.51-2.7-1.59-3.1-.87s-.08,2.38.08,3.1.16,2.14.16,2.14l-.16,1.75s-.71-3.57-1.67-4.92c-.95-1.35-1.75-1.99-2.78-1.75s-1.11,1.75-.79,2.3,1.03,2.38,1.11,2.94.4,2.38.4,2.38c0,0-1.51-3.02-2.3-4.05s-2.22-.79-2.54.08.08,2.06.24,2.54,1.51,3.33,1.51,3.33c0,0-2.06-2.3-3.1-2.22s-1.35,1.11-.87,1.91,2.22,2.62,2.22,2.62c0,0,1.59,3.65,2.46,4.76s2.3,2.7,2.3,2.7c0,0-.64,13.26.32,20.96.95,7.7,2.14,11.35,3.57,12.07,1.43.71,8.89,1.51,8.89,1.51l1.48-14.83Z"/>
    <path class="cls-19" d="M156.31,72.1s-2.94-2.41-11.1-3.74c-8.16-1.34-17.78-1.74-17.78-1.74l-1.47,20.86s12.43,1.6,16.85,1.47c4.41-.13,7.89-.94,11.1-3.34"/>
    <path class="cls-1" d="M128.98,189.23c2.72.68,12.76-.51,15.15-.51s4.59.51,6.98.51,4.21-1.5,4.25-4.33c-3.61,1.38-7.89,1.78-9.7,1.78-2.89,0-8,1.02-13.44,1.02s-8-3.06-8-3.06c-.34,2.21,2.04,3.91,4.76,4.59Z"/>
  </g>
  <g id="Character_3" data-name="Character 3">
    <path class="cls-5" d="M81.63,161.56c.9.7-.33,7.38-1.04,9.66l-.7,2.28,5.97,11.07s9.84.7,13,.35l3.16-.35-5.97,15.28s-13.53-.88-15.46-2.81-6.5-30.57-6.5-30.57l7.54-4.92Z"/>
    <g>
      <path class="cls-1" d="M88.69,277.22s-.52,2.24-2.41,3.44-10.5,2.75-11.7,3.96-.17,5.85,7.74,7.57c7.92,1.72,11.01-1.38,13.77-2.06,2.75-.69,8.78.86,10.32-1.55,1.55-2.41-.86-10.32-.86-10.32,0,0-13.25-.34-16.86-1.03Z"/>
      <path class="cls-1" d="M82.32,292.19c7.92,1.72,11.01-1.38,13.77-2.06,2.75-.69,8.78.86,10.32-1.55.36-.56.5-1.41.52-2.4-3.08.74-7.81,1.71-9.29,1.71-2.06,0-7.57,3.61-13.94,3.1-6.37-.52-9.12-6.37-9.12-6.37-1.2,1.2-.17,5.85,7.74,7.57Z"/>
    </g>
    <g>
      <path class="cls-1" d="M105.86,286.43s-2.31,5.38-5.64,7.13c-3.33,1.75-7.31,2.25-7.1,4.84.21,2.58,4.01,4.51,9.33,4.83,5.32.32,12.04-2.44,15.45-3.27,3.4-.83,5.54-1.55,5.59-5.46.05-3.9-1.4-8.43-1.4-8.43,0,0-11.14,2.37-16.23.36Z"/>
      <path class="cls-1" d="M102.45,303.23c5.32.32,12.04-2.44,15.45-3.27,2.86-.69,4.81-1.33,5.4-3.81-6.02,2.08-14.82,4.76-19.59,4.57-7.7-.32-10.59-2.31-10.59-2.31.21,2.58,4.01,4.51,9.33,4.83Z"/>
    </g>
    <path class="cls-3" d="M85.33,224.28s-.18,27.58.35,33.9c.53,6.32.21,18.19.88,19.97.75,1.99,6.5,3.86,8.61,3.86s6.5-1.05,6.5-1.05l.7,5.8s5.09,3.34,11.77,2.64c6.68-.7,12.47-2.99,12.3-4.92-.18-1.93-3.69-41.93-3.69-43.16s1.58-5.09,2.28-8.96c.7-3.86-.88-8.26-1.05-8.96s-23.72,5.97-38.65.88Z"/>
    <polyline class="cls-4" points="92.54 232.88 97.81 236.4 101.67 280.96"/>
    <path class="cls-4" d="M110.81,231.13s1.23,2.64,2.28,3.86c1.05,1.23,4.22,2.28,4.22,2.28l3.69,47.9"/>
    <g>
      <path class="cls-6" d="M88.3,202.15l-5.08,23.83s13.67,6.16,25.93,4.55c12.26-1.6,20.58-8.44,20.58-8.44,0,0-7.62-8.55-7.62-18.72,0-7.6-6.7-20.71-7.27-19.83l-13.58-.84s-9.99,5.26-12.96,19.45Z"/>
      <path class="cls-15" d="M99.61,202.95s7.13,5.44,11.98,6.57"/>
      <path class="cls-15" d="M103.44,209.1s7.2,7.47,11.21,9.33"/>
    </g>
    <path class="cls-5" d="M101.32,179.97s-1.53,5.75-1.17,6.69c.35.94,4.23,2.35,8.57,1.64s5.64-2,5.99-3.29c.35-1.29.82-7.4.82-7.4,0,0-12.68,2.58-14.21,2.35Z"/>
    <g>
      <path class="cls-5" d="M99.58,135.79s-6.07,3.88-8.46,8.86c-2.38,4.98-1.54,7.77-1.72,10.5-.18,2.73-7.54,7.89-3.13,16.4,2.27,4.37,10.17,9.4,15.47,9.4,5.31,0,16.06-2.2,19.5-5.05,3.44-2.85,9.08-7.96,11.39-14.48,2.31-6.52-1.7-15.86-6.81-21.33-5.12-5.47-18.96-8.44-26.25-4.29Z"/>
      <path class="cls-14" d="M121.25,175.9c3.44-2.85,9.08-7.96,11.39-14.48,2.18-6.16-1.27-14.81-5.96-20.37l-2.78,4.9s-6.58,6.41-6.76,9.14,3.72,8.46,3.72,8.46c0,0,3.97,2.14,2.71,5.66-1.26,3.51-2.09,5.68-2.32,6.69Z"/>
      <path class="cls-14" d="M99.58,135.79s17.44,1.16,33.72,21.47c.01-5.91-3.37-12.79-7.48-17.17-5.12-5.47-18.96-8.44-26.25-4.29Z"/>
      <path class="cls-5" d="M118.61,165.65s5.4-4.1,8.35-2.02c2.94,2.08,2.59,7.53-.28,9.4-2.86,1.87-9.11,3.17-10.78-.02"/>
      <path class="cls-24" d="M102.86,158.31c-.37,1.32-1.3,2.21-2.07,1.99s-1.09-1.46-.72-2.78c.37-1.32,1.3-2.21,2.07-1.99.77.22,1.09,1.46.72,2.78Z"/>
      <path class="cls-24" d="M93.92,156.35c-.37,1.32-1.3,2.21-2.07,1.99-.77-.22-1.09-1.46-.72-2.78.37-1.32,1.3-2.21,2.07-1.99s1.09,1.46.72,2.78Z"/>
      <path class="cls-15" d="M96.01,156.27s-1.04,2.84-1.74,2.97c-.69.13-2.29,1.05-2.05,2.6.24,1.56,2.22,2.71,3.8,2.13"/>
      <path class="cls-15" d="M92.56,167s6.64,3.18,12.1-1.77"/>
      <path class="cls-3" d="M95.26,167.85s.93,3.71,3.21,3.15c2.27-.56,3.3-3.67,3.3-3.67,0,0-3.25,1.08-6.51.51Z"/>
      <path class="cls-7" d="M101.63,149.67s5.34-.71,6.59,3.61"/>
      <path class="cls-7" d="M96.18,148.49s-3.37-2.46-5.81-1.09"/>
    </g>
    <g>
      <path class="cls-6" d="M84.69,156.47c.04,2.34-1,4.31-2.32,4.41-1.32.1-2.42-1.71-2.46-4.05-.04-2.34,1-4.31,2.32-4.41s2.42,1.71,2.46,4.05Z"/>
      <path class="cls-6" d="M82.14,153.21l-32.24-3.34.89,14.66,31.46-4.3c1-.08,1.79-1.71,1.76-3.64-.03-1.93-.87-3.44-1.87-3.37Z"/>
      <path class="cls-6" d="M52.1,148.17l-32.87-5.34-.25,29.13,33.41-5.89c2.56-.2,4.58-4.36,4.5-9.3s-2.22-8.78-4.79-8.59Z"/>
      <path class="cls-6" d="M26.3,156.81c.13,8.04-3.15,14.82-7.32,15.14-4.17.32-7.66-5.94-7.79-13.99-.13-8.04,3.15-14.82,7.32-15.14,4.17-.32,7.66,5.94,7.79,13.99Z"/>
      <path class="cls-3" d="M24.32,156.96c.1,5.94-2.33,10.95-5.41,11.18-.17.01-.34.01-.5,0-2.86-.27-5.16-4.71-5.26-10.33-.1-5.94,2.33-10.95,5.41-11.18.58-.04,1.14.08,1.67.36,2.29,1.19,4,5.14,4.09,9.97Z"/>
      <path class="cls-1" d="M24.32,156.96c.1,5.94-2.33,10.95-5.41,11.18-.17.01-.34.01-.5,0-2.3-1.19-4.01-5.14-4.09-9.97-.09-5.94,2.33-10.95,5.41-11.19.17-.01.34-.01.5,0,2.29,1.19,4,5.14,4.09,9.97Z"/>
    </g>
    <g>
      <ellipse class="cls-22" cx="88.38" cy="159.7" rx="2.39" ry="4.24" transform="translate(-8.79 5.19) rotate(-3.21)"/>
      <path class="cls-6" d="M87.98,156.27l-22.11-1.56.7,14.28,22-5.74c1-.14,1.67-1.82,1.51-3.75s-1.1-3.37-2.1-3.23Z"/>
      <path class="cls-6" d="M66.77,152.6l-32.36-3.1-.59,29.13,34.46-8.21c2.54-.37,4.27-4.66,3.85-9.58-.42-4.92-2.82-8.61-5.36-8.24Z"/>
      <path class="cls-6" d="M41.69,163.76c-.16,8.04-3.69,14.7-7.87,14.87-4.18.17-7.44-6.22-7.28-14.26.16-8.04,3.69-14.7,7.87-14.87,4.18-.17,7.44,6.22,7.28,14.26Z"/>
      <path class="cls-3" d="M33.9,174.82c-.2,0-.39,0-.59-.03-2.8-.45-4.89-4.94-4.78-10.5.12-5.94,2.72-10.86,5.81-10.98.67-.03,1.31.17,1.9.56,2.12,1.42,3.57,5.32,3.48,9.97-.12,5.94-2.72,10.86-5.81,10.98Z"/>
      <path class="cls-1" d="M33.9,174.82c-.2,0-.39,0-.59-.03-2.12-1.4-3.59-5.31-3.5-9.98.12-5.94,2.73-10.85,5.82-10.98.21,0,.41,0,.61.04,2.12,1.42,3.57,5.32,3.48,9.97-.12,5.94-2.72,10.86-5.81,10.98Z"/>
    </g>
    <path class="cls-5" d="M87.95,187.95s-3.68-2.52-6.03-6.92c-2.35-4.4-3.81-9.49-3.81-9.49,0,0,2.3-4.28,2.8-5.28.49-1,.35-3.6.71-4.71s2.09-2.83-.04-2.73c-2.13.1-3.01,1.97-3.01,1.97,0,0-.33-4.88-1.52-6.1s-2.52-1.16-2.8-.49c-.29.66.14,2.1.34,2.72.2.62.33,1.87.33,1.87l.02,1.55s-.95-3.08-1.91-4.19c-.96-1.1-1.71-1.59-2.6-1.29s-.82,1.64-.49,2.1c.33.46,1.12,2.01,1.24,2.49.12.48.56,2.06.56,2.06,0,0-1.6-2.52-2.39-3.36-.79-.84-2.03-.5-2.23.3-.2.8.25,1.81.44,2.22s1.62,2.8,1.62,2.8c0,0-2.02-1.84-2.92-1.68-.9.16-1.09,1.1-.6,1.76.49.66,2.19,2.11,2.19,2.11,0,0,1.72,3.07,2.59,3.98.87.9,2.27,2.17,2.27,2.17,0,0,.62,11.73,2.14,18.43,1.52,6.7,2.9,9.81,4.22,10.31,1.32.5,7.96.54,7.96.54l.92-13.13Z"/>
    <path class="cls-6" d="M113.5,190.83s-2.6-2.13-9.82-3.31-15.74-1.54-15.74-1.54l-1.3,18.46s11,1.42,14.91,1.3c3.9-.12,6.98-.83,9.82-2.96"/>
  </g>
  <g id="Character_1" data-name="Character 1">
    <path class="cls-1" d="M202.47,274.76s1.73-1.6,2.59-.49c.86,1.11,2.1,4.07,3.21,4.93,1.11.86,8.63,2.47,10.11,3.08,1.48.62,2.71,1.48,1.73,4.44-.99,2.96-3.82,4.93-8.14,5.18-4.32.25-11.59-1.97-13.69-2.84s-4.56.25-5.92-2.59c-1.36-2.84-1.36-8.26-.12-10.6,1.23-2.34,4.69.74,10.23-1.11Z"/>
    <path class="cls-8" d="M208.14,247.38s-3.82,11.59-4.81,15.78c-.99,4.19-.86,11.59-.86,11.59,0,0-.12,2.71-2.34,3.33-2.22.62-7.15-.37-7.89-2.22s.62-29.84.62-29.84l15.29,1.36Z"/>
    <path class="cls-11" d="M180.89,240.97s0,6.66-.62,8.38c-.62,1.73-2.47,5.43-1.36,11.22,1.11,5.79,3.95,15.66,4.44,16.77s1.11,4.93,2.96,6.16c1.85,1.23,7.27,1.11,7.64-3.21.37-4.32.49-24.91,1.23-28.23.74-3.33,1.36-5.3,1.36-5.3l-15.66-5.79Z"/>
    <path class="cls-1" d="M197.17,282.03s-.86-1.36-1.85-3.7c-.99-2.34-3.7-2.47-4.93.25-1.23,2.71-1.48,3.82-1.48,3.82,0,0-1.36.37-2.59-1.11-1.23-1.48-2.59-2.59-2.59-2.59,0,0-1.48,1.11-.86,3.33.62,2.22.99,3.33.99,3.33,0,0-1.36,5.43-.74,7.15s1.73,3.21,3.45,4.07c1.73.86,1.6.62,4.81,2.22,3.21,1.6,9.37,4.44,13.56,3.45,4.19-.99,6.78-5.3,5.55-8.63-1.23-3.33-8.01-7.15-10.11-8.38-2.1-1.23-3.21-3.21-3.21-3.21Z"/>
    <g>
      <path class="cls-10" d="M221.31,211.58s6.98,27.09,7.12,27.5c.14.41-4.93,5.75-12.31,7.53-7.39,1.78-13.96,4.65-26,1.51-12.04-3.15-17.92-6.7-18.47-7.25s-3.15-3.97-3.69-5.2c-.55-1.23-1.37-2.46-1.37-2.46,0,0,9.99-27.78,12.86-30.79,2.87-3.01,7.94-3.15,7.94-3.15,0,0,18.2,16.42,33.93,12.31Z"/>
      <line class="cls-10" x1="174.93" y1="223.35" x2="169.59" y2="236.62"/>
      <line class="cls-10" x1="193.95" y1="211.72" x2="192.17" y2="218.15"/>
      <path class="cls-10" d="M214.75,215c.14.41,2.19,13.41,2.19,13.41"/>
    </g>
    <path class="cls-10" d="M182.92,185.95c3.06,1.12,5.56,1.96,5.56,1.96,0,0-5.47,12.59-4.24,14.78,1.23,2.19,10.4,11.77,22.99,12.59,12.59.82,15.05-2.33,15.74-3.83s4.79-13.82,4.79-13.82c0,0,1.78,11.9,3.97,16.01,2.19,4.1,5.88,8.89,9.71,8.35,3.83-.55,9.03-6.7,8.62-11.63-.41-4.93-7.12-10.26-9.85-16.28-2.74-6.02-5.34-10.26-5.34-10.26,0,0-12.71-9.6-19.08-9.73,0,0-5.14-3.27-11.71-4.37-6.57-1.09-27.64,2.33-30.51,3.83s-2.33,5.88-1.78,7.39"/>
    <ellipse class="cls-15" cx="218.17" cy="182.57" rx="9.99" ry="8.89" transform="translate(8.15 374.46) rotate(-82.34)"/>
    <path class="cls-11" d="M216.66,169.98s-3.97,6.02-4.93,9.3c-.96,3.28.14,8.48,5.2,9.58,5.06,1.09,9.3-6.16,9.3-6.16l-9.58-12.73Z"/>
    <g>
      <path class="cls-17" d="M223.09,139.06s-.27-6.16-6.16-10.81c-5.88-4.65-14.5-3.69-15.19-1.51s2.6,3.83,2.6,3.83c0,0-8.07,4.52-6.84,9.58,1.23,5.06,6.29,7.25,11.22,4.1,4.93-3.15,10.67-3.56,11.49-3.15.82.41,3.69.82,2.87-2.05Z"/>
      <path class="cls-10" d="M225.83,141.66c0,1.89-1.62,3.42-3.63,3.42s-3.63-1.53-3.63-3.42,1.62-3.42,3.63-3.42,3.63,1.53,3.63,3.42Z"/>
      <path class="cls-11" d="M214.61,154.66s-5.47-.14-6.43,4.24,1.51,6.84,3.28,7.66c1.78.82,3.14.68,3.15.68-.3.03,1,6.24,1.17,6.83.67,2.31,1.65,4.56,3.09,6.49,3.34,4.49,8.35,5.64,13.67,5.97,5.88.37,9.03-3.42,9.85-5.61.82-2.19.68-4.79,1.78-6.16,1.09-1.37,3.28-4.52,3.28-4.52,0,0,3.01-3.15,3.28-6.29.27-3.15-2.46-9.85-6.84-12.18-4.38-2.33-14.78,2.19-18.2,2.46-3.42.27-5.34-1.64-7.25-1.78-1.92-.14-3.83,2.19-3.83,2.19Z"/>
      <path class="cls-15" d="M236.78,171.35s-1.09,2.05-1.23,2.6c-.14.55-3.28,2.46-4.93-.68"/>
      <path class="cls-15" d="M223.09,171.22s.68,6.43,7.8,7.53"/>
      <path class="cls-15" d="M225.56,165.74s4.24,0,5.06,2.87"/>
      <path class="cls-17" d="M226.1,161.36s3.15-3.01,5.47-1.51c2.33,1.51,2.33,3.56,1.78,3.56s-1.09-2.05-3.15-1.92c-2.05.14-3.15,1.37-4.1-.14Z"/>
      <path class="cls-17" d="M240.74,164.51s3.15-3.01,5.47-1.51c2.33,1.51,2.33,3.56,1.78,3.56s-1.09-2.05-3.15-1.92c-2.05.14-3.15,1.37-4.1-.14Z"/>
      <path class="cls-24" d="M240.54,172.85c-.67,1.01-1.66,1.52-2.23,1.15s-.49-1.5.18-2.51c.67-1.01,1.66-1.52,2.23-1.15.57.37.49,1.5-.18,2.51Z"/>
      <path class="cls-17" d="M229.66,138.79s-5.75.68-9.58,4.1c-3.83,3.42-5.47,11.77-5.47,11.77l3.01,4.79s.41-.27,2.6-.82c2.19-.55,3.56-1.64,3.56-1.64,0,0,6.16,2.87,11.9,1.09,5.75-1.78,7.39-4.24,8.07-4.65.68-.41.82,1.23,3.56,6.7,2.74,5.47,1.92,6.29.82,8.48s-2.05,2.87-2.05,2.87c0,0,7.53.82,11.22-1.37,3.69-2.19,5.75-10.13,1.23-14.91-4.52-4.79-8.35-3.15-8.35-3.15,0,0-.96-7.66-6.43-11.22-5.47-3.56-14.09-2.05-14.09-2.05Z"/>
    </g>
    <path class="cls-18" d="M188.48,187.91s3.83,2.46,7.25,2.19"/>
    <path class="cls-15" d="M190.94,190.51s1.51,2.05,3.56,3.15"/>
    <g>
      <path class="cls-8" d="M173.7,197.62s-2.87-3.69-4.24-1.64c-1.37,2.05-.27,4.24-.27,4.24,0,0-2.6-2.33-3.28-.41-.68,1.92-.27,6.43,1.92,8.62,2.19,2.19,6.43,4.79,12.59,2.74,6.16-2.05,6.98-9.44,6.16-10.54-.82-1.09-12.86-3.01-12.86-3.01Z"/>
      <path class="cls-8" d="M174.25,202.14s-5.2,0-4.93,4.24"/>
      <line class="cls-8" x1="169.18" y1="200.22" x2="171.24" y2="202.82"/>
    </g>
    <path class="cls-13" d="M173.7,197.62s-1.78,3.69,2.05,5.2c3.83,1.51,9.99,0,10.81-2.19.82-2.19-.55-3.97-.55-3.97,0,0-7.12,2.6-12.31.96Z"/>
    <path class="cls-10" d="M171.78,180.93s0,15.32.82,17.24c.82,1.92,4.38,3.56,8.62,2.87s5.75-2.46,6.16-4.24c.41-1.78-.68-9.17-.68-9.17"/>
    <path class="cls-24" d="M237.76,224.81c-.48,0-.96-.12-1.4-.38-1.34-.78-1.8-2.49-1.02-3.83l15.7-27.11c.78-1.34,2.49-1.8,3.83-1.02,1.34.78,1.8,2.49,1.02,3.83l-15.7,27.11c-.52.9-1.46,1.4-2.43,1.4Z"/>
    <g>
      <ellipse class="cls-21" cx="263.36" cy="174.12" rx="22.95" ry="18.86" transform="translate(27.45 383.95) rotate(-75.12)"/>
      <g>
        <path class="cls-3" d="M267.19,175.91c-1.88,4.52-5.53,7.3-8.16,6.2-2.63-1.09-3.23-5.64-1.35-10.16,1.88-4.52,5.53-7.3,8.16-6.2,2.63,1.09,3.23,5.64,1.35,10.16Z"/>
        <path class="cls-1" d="M266.79,172.48c-.3,1.48-1.2,2.54-2.02,2.38-.82-.16-1.25-1.49-.95-2.97.3-1.48,1.2-2.54,2.02-2.38s1.25,1.49.95,2.97Z"/>
      </g>
      <path class="cls-3" d="M268.22,148.94c-11.22-3.22-23.33,4.7-27.06,17.68-3.73,12.99,2.34,26.12,13.56,29.34,11.22,3.22,23.33-4.7,27.06-17.68,3.73-12.99-2.34-26.12-13.56-29.34ZM278.84,177.44c-3.19,11.11-13.55,17.88-23.15,15.13-9.6-2.75-14.79-13.99-11.6-25.11,3.19-11.11,13.55-17.88,23.15-15.13,9.6,2.75,14.79,13.99,11.6,25.11Z"/>
      <path class="cls-10" d="M270.18,150.72c-11.22-3.22-23.33,4.7-27.06,17.68-3.73,12.99,2.34,26.12,13.56,29.34,11.22,3.22,23.33-4.7,27.06-17.68,3.73-12.99-2.34-26.12-13.56-29.34ZM280.8,179.22c-3.19,11.11-13.55,17.88-23.15,15.13-9.6-2.75-14.79-13.99-11.6-25.11,3.19-11.11,13.55-17.88,23.15-15.13,9.6,2.75,14.79,13.99,11.6,25.11Z"/>
    </g>
    <g>
      <path class="cls-11" d="M242.25,199.62s-1.9-.42-2.75.53c-.85.95-4.02,4.23-3.7,5.39.32,1.16,2.22,2.32,4.97.74,2.75-1.59,3.91-4.76,3.59-5.6-.32-.85-2.11-1.06-2.11-1.06Z"/>
      <g>
        <path class="cls-11" d="M253.24,201.95s-5.71-4.86-9.3-4.33-2.11,4.76-2.11,4.76c0,0-1.69,1.8-2.01,2.64-.32.85-.11,2.43-.11,2.43,0,0-1.9,1.69-2.22,3.17-.32,1.48-.21,2.64-.21,2.64,0,0,.63,3.59,4.54,4.76,3.91,1.16,7.82-2.11,10.88-5.28,3.06-3.17,3.59-8.56.53-10.78Z"/>
        <path class="cls-11" d="M241.82,202.37s5.92,3.59,6.66,4.02"/>
        <path class="cls-11" d="M239.71,207.44s3.91,3.17,5.92,4.02"/>
        <path class="cls-11" d="M237.49,210.61s1.69,3.59,4.12,4.33"/>
      </g>
    </g>
  </g>
</svg>