<?xml version="1.0" encoding="UTF-8"?>
<svg id="Layer_1" data-name="Layer 1" xmlns="http://www.w3.org/2000/svg" viewBox="0 0 201.95 294">
  <defs>
    <style>
      .cls-1 {
        fill-rule: evenodd;
      }

      .cls-1, .cls-2 {
        fill: #09652e;
        stroke-width: 0px;
      }
    </style>
  </defs>
  <g>
    <g>
      <path class="cls-1" d="M100.99,0c47.23.65,87.61,31.93,98.29,78.18,17.74,76.87-55.96,143.77-130.77,118.47C-6.29,171.31-24.25,73.33,36.67,23.06,55.2,7.76,76.93.31,100.85,0h.14ZM100.9,3.49c-19.92.26-37.94,5.44-54.52,16.63C-18.53,63.98-7.73,162.98,65.15,191.71c71.86,28.33,146.72-34.82,131.28-110.39C187.04,35.53,147.43,4.08,100.9,3.49Z"/>
      <path class="cls-1" d="M85.97,83.16c-6.49,3.26-27.12,12.47-41.26,5.61-8.7-4.19-16.32-8.33-21.68-11.33,5.81-1.98,14.03-4.68,23.38-7.23,15.13-4.19,33.78,8.59,39.56,12.95Z"/>
      <path class="cls-1" d="M90.76,70.72c-4.93-4.28-19.69-18.25-18.87-32.33.51-8.67,1.3-16.43,1.96-21.9,3.66,4.14,8.7,10.06,14.05,16.92,8.67,11.14,4.48,31,2.86,37.32Z"/>
      <path class="cls-1" d="M90.11,89.57c-2.01,4.25-8.84,17.26-18.79,19.47-6.15,1.36-11.7,2.32-15.64,2.95,2.15-3.34,5.3-8.05,9.01-13.12,6.04-8.22,20.68-9.21,25.42-9.29Z"/>
      <path class="cls-1" d="M61.69,56.02c-3.88-.09-15.95-.88-20.91-7.62-3.09-4.17-5.67-8.02-7.45-10.77,3.26.51,7.82,1.3,12.86,2.41,8.19,1.79,13.83,12.47,15.5,15.98Z"/>
      <path class="cls-1" d="M93.17,33.1c-2.12-2.1-8.5-8.95-7.71-15.41.48-3.97,1.08-7.51,1.53-10,1.56,2.01,3.71,4.87,5.98,8.19,3.66,5.36,1.13,14.39.2,17.23Z"/>
      <path class="cls-1" d="M124.3,127.94c6.58,1.56,9.62,1.46,15.74,1.63,13.88.42,16.66-2.1,30.4,4.79,3.63,1.81,11.13,7.5,14.18,11.39,4.72,6.46,5.46,1.54,3.13,1.93-1.39.23,2.35-1.53,2.13-2.92-1.98-6.97-11.08-11.9-17.14-14.93-6.18-3.09-10.48-4.48-14.42-5.04,7.65-2.78,12.86-3.66,20.34-4.14,3.95-.03-2,.08,2.31-.2l4.08-.07c4.6.07,7.1.67,11.11,1.79,3.31.92,1.96-.44,2.45-1.74.78-3.21,2.5-3.8-6.91-4.65-11.92-1.07-25.9.6-37.94,5.3-9.97,3.88-23.58,5.07-33.52.77-5.35-2.3-8.76-6.86-11.36-16.41-3.46-12.72-2.58-16.58,6.35-26.66,10.06-11.39,23.66-15.02,38.68-16.29,7.88-.65,14.43-.13,20.95,1.29,4.39.96,11.11,3.6,15.63,5.34,4.52,1.75,3.6,1.33,4.48-.31.71-1.3.74-3.61-5-5.79-10.96-4.15-24.92-6.54-36.48-5.57-6.89.57-13.12,1.62-18.7,3.32.54-.99,1.1-2.04,1.67-3.2,5.35-10.6,11.96-33.29,10.26-44.63-.2-1.39-.79-2.12-2.1-2.58-1.36-.37-2.72.45-3.09,1.81-.14.62.27,4.12-.17,9.35-.59,6.98-2.49,15.64-5.13,23.55-6.4,19.07-8.78,15.5-20.8,26.29-3.66,3.32-6.94,7.31-9.92,12.13-.43-4.19-.74-21.39-.99-38.79-.11-8.5-.14-34.8-.14-42.03,0-1.28-1.59-2.51-3.04-2.54-1.45.03-3.05,1.18-3.14,2.46-.48,6.67.06,33.61-.06,42.11-.26,17.4-.57,34.6-.96,38.79-2.98-4.82-6.26-8.81-9.95-12.13-11.99-10.8-14.39-7.23-20.8-26.29-2.64-7.91-4.38-16.58-5.13-23.55-.58-5.39-.14-9.01-.22-9.65-.28-2.04-1.68-1.89-3.04-1.52-1.3.45-1.9,1.19-2.1,2.58-1.67,11.33,4.9,34.03,10.26,44.63.57,1.16,1.13,2.21,1.7,3.2-5.61-1.7-11.82-2.75-18.73-3.32-11.56-.96-23.84.23-34.6,4.87-6.91,2.98-9.03,5.97-8.32,7.27.88,1.64.64,1.89,5.91-.47,4.42-1.98,11.28-4.7,15.67-5.67,6.55-1.42,13.06-1.62,20.91-.96,15.05,1.28,28.62,4.9,38.68,16.29,8.95,10.09,9.8,13.94,6.35,26.66-2.58,9.55-6.01,14.11-11.36,16.41-9.92,4.31-23.52,3.12-33.52-.77-12.01-4.7-25.05-7.17-37.94-5.3-3.77.55-9.21,1.15-7.99,5.08.48,1.3.17,2.94,2.93,1.58,3.79-1.85,7.97-2.4,12.26-2.31h.27c1.83.1,2.08.1,5.59.52,7.45.48,12.67,1.36,20.34,4.14-3.97.57-8.27,1.96-14.42,5.04-6.06,3.03-15.16,7.96-17.14,14.93-.23,1.39.71,2.69,2.1,2.92,1.39.23-.81,5.71,1.89-1.63,3.77-8.08,11.8-9.87,15.43-11.68,13.74-6.89,16.55-4.36,30.4-4.79,6.12-.17,36-4.05,38.83-7.96-2.08,1.58,4.89,1.28,22.87,6.32Z"/>
      <path class="cls-1" d="M115.98,83.16c6.49,3.26,27.15,12.47,41.26,5.61,8.73-4.19,16.35-8.33,21.68-11.33-5.78-1.98-14.03-4.68-23.35-7.23-15.13-4.19-33.78,8.59-39.58,12.95Z"/>
      <path class="cls-1" d="M111.22,70.72c4.93-4.28,19.66-18.25,18.84-32.33-.51-8.67-1.3-16.43-1.95-21.9-3.66,4.14-8.7,10.06-14.05,16.92-8.67,11.14-4.48,31-2.83,37.32Z"/>
      <path class="cls-1" d="M111.87,89.57c1.98,4.25,8.81,17.26,18.79,19.47,6.12,1.36,11.67,2.32,15.61,2.95-2.15-3.34-5.27-8.05-9.01-13.12-6.04-8.22-20.68-9.21-25.39-9.29Z"/>
      <path class="cls-1" d="M140.29,56.02c3.85-.09,15.92-.88,20.91-7.62,3.06-4.17,5.64-8.02,7.42-10.77-3.23.51-7.79,1.3-12.86,2.41-8.19,1.79-13.83,12.47-15.47,15.98Z"/>
      <path class="cls-1" d="M108.78,33.1c2.15-2.1,8.5-8.95,7.74-15.41-.51-3.97-1.1-7.51-1.56-10-1.56,2.01-3.71,4.87-5.95,8.19-3.68,5.36-1.16,14.39-.23,17.23Z"/>
      <g>
        <path class="cls-1" d="M61.29,94.72c-2.24,3.17-9.69,12.67-18.08,12.98-5.16.2-9.8.14-13.06.08,2.24-2.41,5.47-5.72,9.21-9.29,6.12-5.75,18.11-4.39,21.93-3.77Z"/>
        <path class="cls-1" d="M140.66,94.72c2.24,3.17,9.69,12.67,18.08,12.98,5.16.2,9.8.14,13.09.08-2.27-2.41-5.47-5.72-9.24-9.29-6.09-5.75-18.11-4.39-21.93-3.77Z"/>
      </g>
    </g>
    <path class="cls-1" d="M93.12,111.04c3.44,12.72,2.6,16.58-6.32,26.66-10.02,11.39-23.54,15.02-38.53,16.29-7.82.65-14.31.45-20.83-.96-4.38-.96-11.09-3.96-15.61-5.67-.69-.26,3.31,6.93,3.91,7.15,10.97,4.01,21.44,5.49,32.96,4.52,6.89-.57,13.07-1.61,18.66-3.31-.56.99-1.13,2.04-1.69,3.2-5.34,10.6-7.69,17.47-9.59,29.9-.21,1.39,6.14,3.2,7.44,3.66,1.36.37-1.65.48-1.31-.88.14-.62-1.06.6-1.46.29-1.85-1.39,3.73-17.97,4.37-19.9,6.38-19.07,9.55-16.08,21.49-26.88,3.67-3.32,6.94-7.31,9.91-12.13.4,4.19.71,21.39.96,38.79.11,8.5-.34,21.12-.3,28.09,0,1.28,1.49.48,2.93.51,1.44-.03,3.57.73,3.53-.55-.24-7.49.08-19.55.2-28.05.25-17.4.56-34.6.99-38.79,2.96,4.82,6.24,8.81,9.88,12.13,11.97,10.8,14.34,7.23,20.72,26.29,2.63,7.91,4.04,11.9,4.78,18.87.2,1.9,5.19-.23,4.96-1.61-1.6-9.66-4.17-19.16-9.51-29.76-.57-1.16-1.13-2.21-1.67-3.2,5.56,1.7,11.77,2.75,18.63,3.31,11.52.96,21.84-.82,31.91-4.15.42-.14,4.07-3.51,3.37-4.81-.87-1.64,2.95-3.9.57-2.83-5.06,2.26-6.58,4.09-14.59,5.78-6.5,1.37-12.99,1.62-20.83.96-14.96-1.28-28.51-4.9-38.54-16.29-8.89-10.09-9.77-13.94-6.32-26.66,2.6-9.55-17.62-9.55-15.05,0Z"/>
    <path class="cls-1" d="M27.62,120.51s25.27,57.42,74.01,56.25c48.74-1.17,75.69-57.03,75.69-57.03l4.26-.39s-25.66,62.09-80.72,61.96c-55.06-.13-78.01-61.05-78.01-61.05"/>
    <path class="cls-1" d="M61.98,129.53s13.86,20.25,37.68,20.25,38.26-21.63,38.26-21.63l4.91.41s-12.7,26.59-42.59,26.45c-29.89-.14-45.04-25.62-45.04-25.62"/>
  </g>
  <g>
    <path class="cls-2" d="M3.29,245.39c0-8.91,4.84-13.88,12.75-13.88,1.87,0,3.37.19,4.18.34h4.91v8.8h-4.54l-.7-3.9c-.7-.27-1.8-.5-3.11-.5-3.55,0-6.08,2.49-6.08,8.83s1.72,9.33,5.42,9.33c1.28,0,1.98-.11,2.71-.34v-4.7h-2.2v-3.9h10.7v3.94h-.73c-.51,0-1.03.69-1.03,1.15v8.07h-3.55s-.33-.8-1.03-.8c-1.32.69-3.08,1.15-5.31,1.15-8.02,0-12.38-4.78-12.38-13.58Z"/>
    <path class="cls-2" d="M29.42,248.68c0-6.46,3.92-10.52,10.04-10.52s9.12,3.14,9.12,10.06c0,.8-.07,1.49-.07,1.72h-12.49c.26,3.37,1.61,4.86,4.29,4.86,2.2,0,3.11-.8,3.99-1.95h3.55v4.17c-1.65,1.03-3.96,1.91-8.17,1.91-7.03,0-10.26-3.94-10.26-10.25ZM42.31,246.42c-.18-3.1-1.03-4.28-2.86-4.28s-3.04,1.22-3.37,4.28h6.23Z"/>
    <path class="cls-2" d="M50.85,248.68c0-6.46,4.54-10.52,10.48-10.52s10.41,4.05,10.41,10.52-4.51,10.25-10.41,10.25-10.48-3.82-10.48-10.25ZM65.14,248.72c0-4.17-1.61-6.12-3.81-6.12s-3.85,1.95-3.85,6.12,1.61,6.04,3.85,6.04,3.81-1.91,3.81-6.04Z"/>
    <path class="cls-2" d="M72.76,260.8c0-2.29,1.8-3.56,3.44-4.21-.95-.54-1.65-1.57-1.65-2.91,0-1.72.99-2.98,2.31-3.86-1.72-1.07-2.67-2.79-2.67-5.05,0-4.09,3.19-6.62,8.28-6.62,1.06,0,2.09.11,3,.34h6.78v4.09h-.95c-.33,0-.73.31-.81.61.15.46.22,1.03.22,1.57,0,4.05-3.15,6.42-8.24,6.42-1.32,0-2.49-.15-3.52-.46-.04.23-.07.65-.07.84,0,.84.4,1.26,1.43,1.26h5.94c4.14,0,6.05,1.57,6.05,5.12,0,4.4-3,7.46-10.7,7.46-6.48,0-8.83-1.84-8.83-4.63ZM86.46,259.58c0-.88-.51-1.34-2.13-1.34h-6.12c-.11.38-.11.73-.11,1.11,0,1.57.84,2.29,3.63,2.29,2.93,0,4.73-.76,4.73-2.06ZM84.96,244.78c0-2.14-.99-3.06-2.45-3.06s-2.49.92-2.49,3.06.99,3.14,2.49,3.14,2.45-.99,2.45-3.14Z"/>
    <path class="cls-2" d="M95.11,254.76h1.14c.4,0,.92-.54.92-.96v-10.21c0-.38-.51-.99-.92-.99h-1.25v-4.09h7.36c.66,0,1.1.57,1.25,2.83,1.25-1.68,2.67-3.06,5.17-3.06.37,0,.7.08,1.17.23v5.05h-.88c-2.67,0-4.36.46-5.42.92v10.29h2.42v3.86h-10.95v-3.86Z"/>
    <path class="cls-2" d="M122.95,256.44c-1.43,1.76-3.22,2.41-5.57,2.41-3.44,0-6.12-1.95-6.12-5.89,0-4.36,3.08-6.31,7.55-6.31,1.54,0,2.6.11,3.77.38v-1.64c0-1.76-.92-2.56-3.04-2.56s-3.26.84-4.14,1.61h-2.82v-4.82c1.91-.8,4.58-1.45,8.43-1.45,5.46,0,8.1,1.87,8.1,6.5v9.14c0,.42.48.96.88.96h.88v3.25c-.92.57-2.23.92-3.85.92-2.34,0-3.55-.92-4.07-2.49ZM122.59,253.88v-3.67c-.7-.15-1.5-.23-2.27-.23-1.76,0-2.82.76-2.82,2.49s.99,2.49,2.42,2.49c1.06,0,1.91-.38,2.67-1.07Z"/>
    <path class="cls-2" d="M133.65,254.76h1.1c.4,0,.88-.54.88-.96v-11.21h-2.09v-4.09h2.09v-1.26c0-4.13,2.42-5.85,6.56-5.85,1.65,0,2.56.27,3.37.57v3.67h-.99c-1.58,0-2.42.23-2.42,1.87v.99h10c.62,0,.99.65.99,2.03v13.27c0,.42.51.96.92.96h1.17v3.86h-9.97v-3.86h1.32v-12.16h-4.43v12.16h1.32v3.86h-9.82v-3.86ZM146.55,234.03c0-1.87,1.43-3.25,3.3-3.25s3.22,1.38,3.22,3.25-1.39,3.25-3.22,3.25-3.3-1.38-3.3-3.25Z"/>
    <path class="cls-2" d="M157.36,257.82v-4.97h3.55c.51,1.3,2.05,2.03,3.66,2.03s2.78-.65,2.78-1.84-.73-1.64-3.55-2.03c-4.18-.57-6.34-2.1-6.34-6.31s3.15-6.5,8.28-6.5c3.26,0,5.35.38,7.03.96v4.78h-3.48c-.62-1.03-1.69-1.68-3.48-1.68s-2.67.61-2.67,1.64c0,.96.62,1.49,3.48,1.91,4.73.65,6.85,1.91,6.85,6.27s-2.6,6.81-8.68,6.81c-3.66,0-5.79-.54-7.44-1.07Z"/>
    <path class="cls-2" d="M175.64,254.76h1.1c.4,0,.92-.54.92-.96v-16.94c0-.42-.51-.99-.92-.99h-1.21v-4.02h7.62c.66,0,1.03.54,1.03,1.45v14.46l3.85-3.75c.73-.73.55-1.53-.26-1.53h-.7v-3.98h9.75v4.09h-.88c-.44,0-1.03.27-1.36.61l-3.7,3.59,4.4,6.92c.4.65.81,1.03,1.28,1.03h.4v3.86h-8.13v-3.44l-2.78-4.44-1.87,1.72v2.29h1.76v3.86h-10.3v-3.86Z"/>
  </g>
  <g>
    <path class="cls-2" d="M54.17,289.83h1.25c.51,0,1.06-.69,1.06-1.15v-16.64c0-.46-.55-1.11-1.06-1.11h-1.25v-4.02h11.87v4.02h-2.6v7.19h7.95v-7.19h-2.6v-4.02h11.87v4.02h-1.25c-.51,0-1.06.65-1.06,1.11v16.64c0,.46.55,1.15,1.06,1.15h1.25v3.86h-11.87v-3.86h2.6v-7.8h-7.95v7.8h2.6v3.86h-11.87v-3.86Z"/>
    <path class="cls-2" d="M94.47,291.51c-1.43,1.76-3.22,2.41-5.57,2.41-3.44,0-6.12-1.95-6.12-5.89,0-4.36,3.08-6.31,7.55-6.31,1.54,0,2.6.11,3.77.38v-1.64c0-1.76-.92-2.56-3.04-2.56s-3.26.84-4.14,1.61h-2.82v-4.82c1.91-.8,4.58-1.45,8.43-1.45,5.46,0,8.1,1.87,8.1,6.5v9.14c0,.42.48.96.88.96h.88v3.25c-.92.57-2.23.92-3.85.92-2.34,0-3.55-.92-4.07-2.49ZM94.11,288.95v-3.67c-.7-.15-1.5-.23-2.27-.23-1.76,0-2.82.76-2.82,2.49s.99,2.49,2.42,2.49c1.06,0,1.91-.38,2.67-1.07Z"/>
    <path class="cls-2" d="M104.95,278.63c-.18-.54-.66-.96-1.1-.96h-.62v-4.09h10.19v4.09h-2.16l3.26,9.56h.07l2.6-7.42c.44-1.26.44-2.14-.92-2.14h-.48v-4.09h8.76v4.09h-.51c-.55,0-1.14.5-1.39,1.19l-6.01,14.84h-5.75l-5.94-15.07Z"/>
    <path class="cls-2" d="M125.8,283.75c0-6.46,3.92-10.52,10.04-10.52s9.12,3.14,9.12,10.06c0,.8-.07,1.49-.07,1.72h-12.49c.26,3.37,1.61,4.86,4.29,4.86,2.2,0,3.11-.8,3.99-1.95h3.55v4.17c-1.65,1.03-3.96,1.91-8.17,1.91-7.03,0-10.26-3.94-10.26-10.25ZM138.7,281.49c-.18-3.1-1.03-4.28-2.86-4.28s-3.04,1.22-3.37,4.28h6.23Z"/>
  </g>
</svg>